# xmcd
#
# Track frame offsets:
#	150
#	19411
#	39104
#	62251
#	84967
#	106551
#	128646
#	146316
#	161897
#	180315
#	200500
#	217111
#	237154
#	263368
#
# Disc length: 3850 seconds
#
# Revision: 1
# Processed by: cddbd v1.5.2PL0 Copyright (c) Steve Scherf et al.
# Submitted via: audiograbber 1.83.01
#
DISCID=a80f080e
DTITLE=Various Artist - Fresh Blues - The Inak Blues Connection Vol. 7
DYEAR=2013
DGENRE=Blues
TTITLE0=Michael Burks - Storm Warning
TTITLE1=Tab Benoit - Muddy Bottom Blues
TTITLE2=Blues Company - Blues Go Away
TTITLE3=Eamonn McCormack - Falsely Accused [featuring Rory Gallagher]
TTITLE4=Joe Louis Walker - Hellfire
TTITLE5=Big Pete - I Got My Eyes On You
TTITLE6=Ana Popovic - Unconditional
TTITLE7=Sunnyland - Hard To Find
TTITLE8=Mitch Kashmar - Night Creeper
TTITLE9=Tommy Schneller - I Knew She Didn't Want Me
TTITLE10=Chris Farlowe - The Woman? Or The Blues
TTITLE11=Toscho - The Blues
TTITLE12=Otis Taylor - The Wind Comes In
TTITLE13=Lil' Ed And The Blues Imperials - Life Is A Journey
EXTD=
EXTT0=
EXTT1=
EXTT2=
EXTT3=
EXTT4=
EXTT5=
EXTT6=
EXTT7=
EXTT8=
EXTT9=
EXTT10=
EXTT11=
EXTT12=
EXTT13=
PLAYORDER=
